HIERARCHY
ROOT reference
{
  OFFSET 0 0 0
  CHANNELS 6 Xposition Yposition Zposition Zrotation Xrotation Yrotation
  JOINT Hips
  {
    OFFSET 368.823 89.7904 194.012
    CHANNELS 3 Zrotation Xrotation Yrotation
    JOINT RightUpLeg
    {
      OFFSET -9.24587 -1.53924 -0.0496539
      CHANNELS 3 Zrotation Xrotation Yrotation
      JOINT RightLeg
      {
        OFFSET 0.0288962 -41.8853 0.065208
        CHANNELS 3 Zrotation Xrotation Yrotation
        JOINT RightFoot
        {
          OFFSET -0.153961 -42.496 -0.469978
          CHANNELS 3 Zrotation Xrotation Yrotation
          End Site
          {
            OFFSET 0 -7.69 17.5
          }
        }
      }
    }
    JOINT LeftUpLeg
    {
      OFFSET 9.30368 -1.65799 0.0114032
      CHANNELS 3 Zrotation Xrotation Yrotation
      JOINT LeftLeg
      {
        OFFSET 0.0812002 -41.8405 -0.136291
        CHANNELS 3 Zrotation Xrotation Yrotation
        JOINT LeftFoot
        {
          OFFSET 0.408244 -41.1613 0.400562
          CHANNELS 3 Zrotation Xrotation Yrotation
          End Site
          {
            OFFSET 0 -7.69 17.5
          }
        }
      }
    }
    JOINT Spine
    {
      OFFSET 0.0091145 14.2923 0.0603898
      CHANNELS 3 Zrotation Xrotation Yrotation
      JOINT Spine1
      {
        OFFSET 0.0313032 9.72692 0.0269052
        CHANNELS 3 Zrotation Xrotation Yrotation
        JOINT Spine2
        {
          OFFSET 0.0416827 10.1254 -0.000588186
          CHANNELS 3 Zrotation Xrotation Yrotation
          JOINT Spine3
          {
            OFFSET 0.0353017 9.71596 0.00525809
            CHANNELS 3 Zrotation Xrotation Yrotation
            JOINT Neck
            {
              OFFSET 0.0870676 10.3793 0.0454457
              CHANNELS 3 Zrotation Xrotation Yrotation
              JOINT Head
              {
                OFFSET 0.0878806 9.48152 0.0233162
                CHANNELS 3 Zrotation Xrotation Yrotation
                End Site
                {
                  OFFSET 0 15.95 0
                }
              }
            }
            JOINT RightShoulder
            {
              OFFSET -3.16008 6.92912 0.0289115
              CHANNELS 3 Zrotation Xrotation Yrotation
              JOINT RightArm
              {
                OFFSET -12.7589 0.0216905 0.0632467
                CHANNELS 3 Zrotation Xrotation Yrotation
                JOINT RightForeArm
                {
                  OFFSET -26.506 -0.0577999 0.0567862
                  CHANNELS 3 Zrotation Xrotation Yrotation
                  JOINT RightHand
                  {
                    OFFSET -25.9836 -0.0526551 -0.00138994
                    CHANNELS 3 Zrotation Xrotation Yrotation
                    JOINT RightHandThumb1
                    {
                      OFFSET -2.48905 0.190105 3.12053
                      CHANNELS 3 Zrotation Xrotation Yrotation
                      JOINT RightHandThumb2
                      {
                        OFFSET -3.68274 0 0
                        CHANNELS 3 Zrotation Xrotation Yrotation
                        JOINT RightHandThumb3
                        {
                          OFFSET -2.55832 0 0
                          CHANNELS 3 Zrotation Xrotation Yrotation
                          End Site
                          {
                            OFFSET -2.194 0 0
                          }
                        }
                      }
                    }
                    JOINT RightInHandIndex
                    {
                      OFFSET -3.22368 0.508421 1.97842
                      CHANNELS 3 Zrotation Xrotation Yrotation
                      JOINT RightHandIndex1
                      {
                        OFFSET -5.21684 -0.091368 0.999158
                        CHANNELS 3 Zrotation Xrotation Yrotation
                        JOINT RightHandIndex2
                        {
                          OFFSET -3.61937 0 0
                          CHANNELS 3 Zrotation Xrotation Yrotation
                          JOINT RightHandIndex3
                          {
                            OFFSET -2.0521 0 0
                            CHANNELS 3 Zrotation Xrotation Yrotation
                            End Site
                            {
                              OFFSET -1.805 0 0
                            }
                          }
                        }
                      }
                    }
                    JOINT RightInHandMiddle
                    {
                      OFFSET -3.38211 0.517263 0.756737
                      CHANNELS 3 Zrotation Xrotation Yrotation
                      JOINT RightHandMiddle1
                      {
                        OFFSET -5.17411 -0.084 0.313895
                        CHANNELS 3 Zrotation Xrotation Yrotation
                        JOINT RightHandMiddle2
                        {
                          OFFSET -3.94947 0 0
                          CHANNELS 3 Zrotation Xrotation Yrotation
                          JOINT RightHandMiddle3
                          {
                            OFFSET -2.47579 0 0
                            CHANNELS 3 Zrotation Xrotation Yrotation
                            End Site
                            {
                              OFFSET -1.975 0 0
                            }
                          }
                        }
                      }
                    }
                    JOINT RightInHandRing
                    {
                      OFFSET -3.36516 0.537895 -0.128947
                      CHANNELS 3 Zrotation Xrotation Yrotation
                      JOINT RightHandRing1
                      {
                        OFFSET -4.63474 -0.022105 -0.478947
                        CHANNELS 3 Zrotation Xrotation Yrotation
                        JOINT RightHandRing2
                        {
                          OFFSET -3.44238 0 0
                          CHANNELS 3 Zrotation Xrotation Yrotation
                          JOINT RightHandRing3
                          {
                            OFFSET -2.3881 0 0
                            CHANNELS 3 Zrotation Xrotation Yrotation
                            End Site
                            {
                              OFFSET -1.857 0 0
                            }
                          }
                        }
                      }
                    }
                    JOINT RightInHandPinky
                    {
                      OFFSET -3.16105 0.469368 -1.20179
                      CHANNELS 3 Zrotation Xrotation Yrotation
                      JOINT RightHandPinky1
                      {
                        OFFSET -4.14105 -0.022105 -1.09053
                        CHANNELS 3 Zrotation Xrotation Yrotation
                        JOINT RightHandPinky2
                        {
                          OFFSET -2.75653 0 0
                          CHANNELS 3 Zrotation Xrotation Yrotation
                          JOINT RightHandPinky3
                          {
                            OFFSET -1.74189 0 0
                            CHANNELS 3 Zrotation Xrotation Yrotation
                            End Site
                            {
                              OFFSET -1.645 0 0
                            }
                          }
                        }
                      }
                    }
                  }
                }
              }
            }
            JOINT LeftShoulder
            {
              OFFSET 3.24363 6.91883 -0.0263005
              CHANNELS 3 Zrotation Xrotation Yrotation
              JOINT LeftArm
              {
                OFFSET 12.8387 -0.0254922 -0.065819
                CHANNELS 3 Zrotation Xrotation Yrotation
                JOINT LeftForeArm
                {
                  OFFSET 26.503 -0.0679028 -0.0690065
                  CHANNELS 3 Zrotation Xrotation Yrotation
                  JOINT LeftHand
                  {
                    OFFSET 25.9897 -0.0384179 -0.0536179
                    CHANNELS 3 Zrotation Xrotation Yrotation
                    JOINT LeftHandThumb1
                    {
                      OFFSET 2.48905 0.190105 3.12053
                      CHANNELS 3 Zrotation Xrotation Yrotation
                      JOINT LeftHandThumb2
                      {
                        OFFSET 3.68274 0 0
                        CHANNELS 3 Zrotation Xrotation Yrotation
                        JOINT LeftHandThumb3
                        {
                          OFFSET 2.55832 0 0
                          CHANNELS 3 Zrotation Xrotation Yrotation
                          End Site
                          {
                            OFFSET 2.194 0 0
                          }
                        }
                      }
                    }
                    JOINT LeftInHandIndex
                    {
                      OFFSET 3.22368 0.508421 1.97842
                      CHANNELS 3 Zrotation Xrotation Yrotation
                      JOINT LeftHandIndex1
                      {
                        OFFSET 5.21684 -0.091368 0.999158
                        CHANNELS 3 Zrotation Xrotation Yrotation
                        JOINT LeftHandIndex2
                        {
                          OFFSET 3.61937 0 0
                          CHANNELS 3 Zrotation Xrotation Yrotation
                          JOINT LeftHandIndex3
                          {
                            OFFSET 2.0521 0 0
                            CHANNELS 3 Zrotation Xrotation Yrotation
                            End Site
                            {
                              OFFSET 1.805 0 0
                            }
                          }
                        }
                      }
                    }
                    JOINT LeftInHandMiddle
                    {
                      OFFSET 3.38211 0.517263 0.756737
                      CHANNELS 3 Zrotation Xrotation Yrotation
                      JOINT LeftHandMiddle1
                      {
                        OFFSET 5.17411 -0.084 0.313895
                        CHANNELS 3 Zrotation Xrotation Yrotation
                        JOINT LeftHandMiddle2
                        {
                          OFFSET 3.94947 0 0
                          CHANNELS 3 Zrotation Xrotation Yrotation
                          JOINT LeftHandMiddle3
                          {
                            OFFSET 2.47579 0 0
                            CHANNELS 3 Zrotation Xrotation Yrotation
                            End Site
                            {
                              OFFSET 1.975 0 0
                            }
                          }
                        }
                      }
                    }
                    JOINT LeftInHandRing
                    {
                      OFFSET 3.36516 0.537895 -0.128947
                      CHANNELS 3 Zrotation Xrotation Yrotation
                      JOINT LeftHandRing1
                      {
                        OFFSET 4.63474 -0.022105 -0.478947
                        CHANNELS 3 Zrotation Xrotation Yrotation
                        JOINT LeftHandRing2
                        {
                          OFFSET 3.44238 0 0
                          CHANNELS 3 Zrotation Xrotation Yrotation
                          JOINT LeftHandRing3
                          {
                            OFFSET 2.3881 0 0
                            CHANNELS 3 Zrotation Xrotation Yrotation
                            End Site
                            {
                              OFFSET 1.857 0 0
                            }
                          }
                        }
                      }
                    }
                    JOINT LeftInHandPinky
                    {
                      OFFSET 3.16105 0.469368 -1.20179
                      CHANNELS 3 Zrotation Xrotation Yrotation
                      JOINT LeftHandPinky1
                      {
                        OFFSET 4.14105 -0.022105 -1.09053
                        CHANNELS 3 Zrotation Xrotation Yrotation
                        JOINT LeftHandPinky2
                        {
                          OFFSET 2.75653 0 0
                          CHANNELS 3 Zrotation Xrotation Yrotation
                          JOINT LeftHandPinky3
                          {
                            OFFSET 1.74189 0 0
                            CHANNELS 3 Zrotation Xrotation Yrotation
                            End Site
                            {
                              OFFSET 1.645 0 0
                            }
                          }
                        }
                      }
                    }
                  }
                }
              }
            }
          }
        }
      }
    }
  }
}
MOTION
Frames: 2
Frame Time: 0.00833333
4.500000000000000000e+02 0.000000000000000000e+00 0.000000000000000000e+00 0.000000000000000000e+00 0.000000000000000000e+00 0.000000000000000000e+00 1.287191648173635281e-02 8.873766090610860774e-03 5.137427069292124227e-01 -2.511759663800587350e-01 -1.956670574997330242e-02 -8.457998741460461822e-01 -1.756064630430349272e-01 -2.073135676974206532e-01 3.259001446925166023e-01 2.032989502295334538e-01 4.770947735691517116e-02 1.533849076204855388e-01 -1.592372487742005349e-01 -4.794031117932778807e-01 -1.549182250158035595e-02 6.145549909175394010e-01 4.165628901843479448e-01 -3.649815957463733440e-01 -7.507534315785664714e-02 1.203243284124761586e-01 -2.125945630731239655e-01 1.147810175434986653e-02 2.310762519433717799e-01 2.448735277752094597e-01 -2.939240988859630112e-03 5.651204435292782324e-02 5.961021423860151519e-02 -7.704368491586534133e-03 5.470044855707298370e-02 1.029811190431788454e-01 1.694135876797916974e-04 3.916267534735099268e-03 -3.601690266098968307e-02 -9.025127794570567130e-02 2.837645749667994446e-02 -1.692837231170888357e+00 -1.038754596138717623e-01 -3.492973088927571190e-01 5.294489548193097583e-01 3.155912536014998104e-01 -3.035446221520382570e-01 -5.878531807021515343e-01 6.295795842367511996e-01 6.959494595869869515e-02 8.871186903080804376e-01 1.041659770144317765e+00 4.226479640785877900e-01 -1.363452637701713932e-01 1.133089059173196939e-01 1.262138949116657027e+00 9.492667153005511782e-01 0.000000000000000000e+00 0.000000000000000000e+00 0.000000000000000000e+00 -2.835990860366152947e-15 -4.627688885795762125e-15 0.000000000000000000e+00 -1.464788377684952758e-15 7.146824589084292629e-16 0.000000000000000000e+00 -1.548497201453393514e-15 -3.516291816115754371e-16 1.320453410419117427e-15 0.000000000000000000e+00 0.000000000000000000e+00 0.000000000000000000e+00 0.000000000000000000e+00 6.276615140921569552e-19 -3.021533461567015569e-15 0.000000000000000000e+00 -4.159360867312595094e-16 2.351871923094060523e-15 -1.548497201453393514e-15 -3.516291816115754371e-16 1.320453410419117427e-15 0.000000000000000000e+00 8.961521185387969294e-17 1.270541667857771227e-16 0.000000000000000000e+00 8.463869354520209404e-16 -2.364676783602123671e-15 0.000000000000000000e+00 1.622118655254897933e-16 1.167872871884773354e-15 -1.548497201453393514e-15 -3.516291816115754371e-16 1.320453410419117427e-15 0.000000000000000000e+00 0.000000000000000000e+00 0.000000000000000000e+00 0.000000000000000000e+00 -8.093581993835786948e-16 -4.338704050126009325e-16 0.000000000000000000e+00 6.497513827489006086e-16 -7.691068617353676370e-16 -1.548497201453393514e-15 -3.516291816115754371e-16 1.320453410419117427e-15 0.000000000000000000e+00 0.000000000000000000e+00 0.000000000000000000e+00 0.000000000000000000e+00 -8.194863032049400138e-16 2.544523942818076072e-16 0.000000000000000000e+00 1.104643926192409946e-16 4.130055389061143351e-16 -1.615709984233728025e-01 -3.258088647865219345e-01 -5.719629720358335723e-01 -1.201770643375718595e-03 -1.552283012379815641e-01 -2.718225889920464766e-01 3.024446111560917805e-01 5.861040062646430959e-01 -1.557421045897762202e+00 -7.812977984891673888e-02 -1.105740133422619786e+00 2.094832458902770700e+00 0.000000000000000000e+00 0.000000000000000000e+00 0.000000000000000000e+00 3.305233850450298731e-15 -2.578379269290023247e-15 0.000000000000000000e+00 1.956272304022294584e-15 -1.822617783169154643e-16 0.000000000000000000e+00 2.832322835950836259e-15 9.793674409960312054e-16 -1.412912988920535922e-15 0.000000000000000000e+00 0.000000000000000000e+00 0.000000000000000000e+00 0.000000000000000000e+00 -2.342345660453966753e-16 1.146119668333855594e-15 0.000000000000000000e+00 8.820181921323135223e-16 -3.298669051736133846e-16 2.832322835950836259e-15 9.793674409960312054e-16 -1.412912988920535922e-15 0.000000000000000000e+00 -1.570235045475945280e-16 1.344930119101107122e-15 0.000000000000000000e+00 1.834203332586382140e-15 -6.927104797989558217e-16 0.000000000000000000e+00 -1.492026846914112103e-15 -6.161106248346435649e-16 2.832322835950836259e-15 9.793674409960312054e-16 -1.412912988920535922e-15 0.000000000000000000e+00 0.000000000000000000e+00 0.000000000000000000e+00 0.000000000000000000e+00 -1.797404281175084047e-15 3.397850966164545268e-16 0.000000000000000000e+00 -1.072229633412015837e-15 -1.948680013771886001e-16 2.832322835950836259e-15 9.793674409960312054e-16 -1.412912988920535922e-15 0.000000000000000000e+00 0.000000000000000000e+00 0.000000000000000000e+00 0.000000000000000000e+00 -1.667439107068295965e-15 -1.539753653640274532e-15 0.000000000000000000e+00 7.510973971521083890e-16 6.732112230487548673e-17
4.500000000000000000e+02 0.000000000000000000e+00 0.000000000000000000e+00 0.000000000000000000e+00 0.000000000000000000e+00 0.000000000000000000e+00 3.835970046976696496e-02 1.709826158706887964e-02 5.140475262703283477e-01 -2.397940756690981889e-01 -8.064396078530680634e-02 -8.923906924520291772e-01 -1.673733849001784457e-01 -1.820131670299784954e-01 3.036595072349451696e-01 1.540923187695009966e-01 4.229511093968544438e-02 2.029438403575069827e-01 -1.574210480165197379e-01 -5.159756828020780617e-01 -1.473288224360850933e-02 6.150097473299904749e-01 4.055322946324864120e-01 -4.145274281342811729e-01 -3.028784443431980708e-02 1.368198881289046098e-01 -1.163248915550966767e-01 5.214699342072577669e-04 2.373211994832354899e-01 3.033736187494791570e-01 -5.794827086011053972e-03 5.850115597922227184e-02 7.384938065978026434e-02 -1.224091423708350765e-02 5.733120089698148097e-02 1.259212089133897872e-01 2.356558295285742009e-04 4.686056930531672625e-03 -3.462923174786823599e-02 -8.729869022067641982e-02 4.705934858124469211e-02 -1.651141783030432908e+00 -7.662482537551572326e-02 -3.594424516477479070e-01 5.195042059076349084e-01 3.234409489872295262e-01 -3.314003244591661734e-01 -6.383790833674352072e-01 3.798788930188228274e-01 6.776973337057061453e-02 6.032547712259650474e-01 9.946847009187074207e-01 3.061538861008029633e-01 -1.102319512668125945e-01 1.143317856578168479e-01 1.435674788646803313e+00 8.543181322325589244e-01 0.000000000000000000e+00 0.000000000000000000e+00 0.000000000000000000e+00 -7.603782959129290568e-16 -3.434334634844235361e-15 0.000000000000000000e+00 -5.199985494470404876e-16 1.575787930902575492e-15 0.000000000000000000e+00 -1.612825824243482374e-15 -3.136025085208045988e-16 4.443455633213543054e-16 0.000000000000000000e+00 0.000000000000000000e+00 0.000000000000000000e+00 0.000000000000000000e+00 -5.326243340314829986e-16 -2.255520345482386031e-15 0.000000000000000000e+00 -5.052444709635710004e-16 1.874403837932077604e-15 -1.612825824243482374e-15 -3.136025085208045988e-16 4.443455633213543054e-16 0.000000000000000000e+00 -3.251958682451424246e-16 -4.341247965816511303e-17 0.000000000000000000e+00 9.410083302763438774e-16 -1.699829111244285310e-15 0.000000000000000000e+00 -4.460985178490357100e-16 1.341153117186479008e-15 -1.612825824243482374e-15 -3.136025085208045988e-16 4.443455633213543054e-16 0.000000000000000000e+00 0.000000000000000000e+00 0.000000000000000000e+00 0.000000000000000000e+00 -4.414256268475651973e-16 -3.327875397888523849e-16 0.000000000000000000e+00 2.770362979267364635e-16 -7.272228201684336331e-16 -1.612825824243482374e-15 -3.136025085208045988e-16 4.443455633213543054e-16 0.000000000000000000e+00 0.000000000000000000e+00 0.000000000000000000e+00 0.000000000000000000e+00 -1.220134803475865009e-15 4.003759480811338605e-16 0.000000000000000000e+00 4.363763127713985978e-17 5.227258753764314759e-16 -1.424555093477905821e-01 -3.707567600172840816e-01 -7.161638408209871631e-01 -8.359136539365947388e-03 -9.865120787630846100e-02 -2.573860083062881610e-01 5.173131715079908322e-01 4.747557660701681725e-01 -8.023471919961294718e-01 -1.084542320012646943e-01 -1.214705374760889578e+00 2.281570184967073978e+00 0.000000000000000000e+00 0.000000000000000000e+00 0.000000000000000000e+00 1.615918862246183456e-15 -1.109150938321944466e-15 0.000000000000000000e+00 6.948673880964456664e-16 4.990736579981862453e-16 0.000000000000000000e+00 2.492077859856699126e-15 1.072298877836323447e-15 -1.393807666371733158e-15 0.000000000000000000e+00 0.000000000000000000e+00 0.000000000000000000e+00 0.000000000000000000e+00 -2.483102587644164341e-17 7.133979311319786124e-16 0.000000000000000000e+00 1.031269809597766063e-15 -3.326489005624911474e-16 2.492077859856699126e-15 1.072298877836323447e-15 -1.393807666371733158e-15 0.000000000000000000e+00 -1.793714600090350480e-16 8.108617665910198396e-16 0.000000000000000000e+00 1.850920920079548281e-15 -9.776236196178495844e-16 0.000000000000000000e+00 -1.298396994117157071e-15 -7.437077833184486267e-16 2.492077859856699126e-15 1.072298877836323447e-15 -1.393807666371733158e-15 0.000000000000000000e+00 0.000000000000000000e+00 0.000000000000000000e+00 0.000000000000000000e+00 -1.721123164719197932e-15 2.659275369139887244e-16 0.000000000000000000e+00 -7.109879362737705672e-16 -5.582343891838255496e-17 2.492077859856699126e-15 1.072298877836323447e-15 -1.393807666371733158e-15 0.000000000000000000e+00 0.000000000000000000e+00 0.000000000000000000e+00 0.000000000000000000e+00 -1.347318337436993555e-15 -8.715282255863389207e-16 0.000000000000000000e+00 5.927120824853341300e-16 3.161663996649157263e-16
